<!-- <svg cxmlns="http://www.w3.org/2000/svg" fill="#000000">
  <symbol id="javascript" viewBox="0 0 1034.00 1034.00" fill="#000000">
    <svg viewBox="0 0 1034.00 1034.00" xmlns="http://www.w3.org/2000/svg" xmlns:xlink="http://www.w3.org/1999/xlink" version="1.1" fill="#000000" stroke="#000000" stroke-width="0.01034">
    <g id="SVGRepo_bgCarrier" stroke-width="0"></g><g id="SVGRepo_tracerCarrier" stroke-linecap="round" stroke-linejoin="round" stroke="#CCCCCC" stroke-width="8.272"></g><g id="SVGRepo_iconCarrier"> <path fill="#ffdd00" d="M75 177v850h850v-850h-850zM722 562q39 0 66.5 15t46.5 49l-62 40q-10 -18 -22 -26t-29 -8t-27.5 9.5t-10.5 24.5q0 17 11 28q10 9 38 21l20 8q55 24 78 49q28 30 28 77q0 52 -38 82q-36 29 -95 29q-53 0 -91 -23q-35 -22 -54 -59l65 -37q14 23 31 35q20 13 48 13 q24 0 39 -11t15 -29t-15 -30q-11 -8 -43 -22l-20 -9q-48 -20 -70 -45q-26 -29 -26 -75t32 -76t85 -30zM458 567h80v273q0 60 -34 91q-31 29 -86 29q-45 0 -77 -21q-27 -19 -43 -52l66 -39q11 21 20 29q12 12 31 12q21 0 31 -10q12 -12 12 -40v-272z"></path> </g>
  </symbol>

  <symbol viewBox="0 0 1024 1024" id="mongodb">
       <svg viewBox="0 0 1024 1024" xmlns="http://www.w3.org/2000/svg" fill="#000000">
       <g id="SVGRepo_bgCarrier" stroke-width="0"></g><g id="SVGRepo_tracerCarrier" stroke-linecap="round" stroke-linejoin="round"></g><g id="SVGRepo_iconCarrier"> <circle cx="512" cy="512" r="512" style="fill:#13aa52"></circle> <path d="M648.86 449.44c-32.34-142.73-108.77-189.66-117-207.59-9-12.65-18.12-35.15-18.12-35.15-.15-.38-.39-1.05-.67-1.7-.93 12.65-1.41 17.53-13.37 30.29-18.52 14.48-113.54 94.21-121.27 256.37-7.21 151.24 109.25 241.36 125 252.85l1.79 1.27v-.11c.1.76 5 36 8.44 73.34H526a726.68 726.68 0 0 1 13-78.53l1-.65a204.48 204.48 0 0 0 20.11-16.45l.72-.65c33.48-30.93 93.67-102.47 93.08-216.53a347.07 347.07 0 0 0-5.05-56.76zM512.35 659.12s0-212.12 7-212.08c5.46 0 12.53 273.61 12.53 273.61-9.72-1.17-19.53-45.03-19.53-61.53z" style="fill:#fff"></path> </g>
  </symbol>
</svg> -->

<svg xmlns="http://www.w3.org/2000/svg" style="display: none;">
<symbol id="javascript" viewBox="0 0 1024 1024">
    <path fill="#ffdd00" d="M75 177v850h850v-850h-850zM722 562q39 0 66.5 15t46.5 49l-62 40q-10 -18 -22 -26t-29 -8t-27.5 9.5t-10.5 24.5q0 17 11 28q10 9 38 21l20 8q55 24 78 49q28 30 28 77q0 52 -38 82q-36 29 -95 29q-53 0 -91 -23q-35 -22 -54 -59l65 -37q14 23 31 35q20 13 48 13 q24 0 39 -11t15 -29t-15 -30q-11 -8 -43 -22l-20 -9q-48 -20 -70 -45q-26 -29 -26 -75t32 -76t85 -30zM458 567h80v273q0 60 -34 91q-31 29 -86 29q-45 0 -77 -21q-27 -19 -43 -52l66 -39q11 21 20 29q12 12 31 12q21 0 31 -10q12 -12 12 -40v-272z"></path>
</symbol>
</svg>